<svg xmlns="http://www.w3.org/2000/svg" xmlns:xlink="http://www.w3.org/1999/xlink" viewBox="0 0 150 150"><defs><style>.cls-1{fill:url(#linear-gradient);}.cls-2{fill:#fff;}</style><linearGradient id="linear-gradient" x1="21.97" y1="21.97" x2="128.03" y2="128.03" gradientUnits="userSpaceOnUse"><stop offset="0" stop-color="#ff5e55"/><stop offset="0.33" stop-color="#ff6386"/><stop offset="0.66" stop-color="#9c6dff"/><stop offset="1" stop-color="#02c6ff"/></linearGradient></defs><title>Asset 4</title><g id="Layer_2" data-name="Layer 2"><g id="Layer_3" data-name="Layer 3"><circle class="cls-1" cx="75" cy="75" r="75"/><path class="cls-2" d="M75,5a70,70,0,1,0,70,70A70,70,0,0,0,75,5Zm38.71,25.06c-.06.9-.13,1.8-.13,2.7V101s-.81,14.78-19.5,12.07A9.72,9.72,0,0,1,89.2,111c-5.73-4.76-3.89-14,.89-16.84,5.46-3.19,14.17-4.41,14.17-4.41s4.36-.27,4.34-6.38v-30a2.28,2.28,0,0,0-.14-.82c-.37-.92-1.61-2.71-5.7-2L66.69,57.78a3.14,3.14,0,0,0-3,3.41v48.93A13.21,13.21,0,0,1,61.81,116c-1.7,3.21-5.28,7.28-12.53,7.28-10.73,0-14.26-4.64-12.62-13A9.64,9.64,0,0,1,40,104.63c4.27-3.4,9.81-4.28,12.36-4.51,2-.18,4.14-1,5.16-2.72a12.62,12.62,0,0,0,1.05-5.75v-50S58,36.31,63,35.93a11,11,0,0,0,1.14-.13l46.16-9.08A2.87,2.87,0,0,1,113.71,30.06Z"/></g></g></svg>