<svg xmlns="http://www.w3.org/2000/svg" viewBox="0 0 150 150"><defs><style>.cls-1{fill:#fff;}.cls-2{fill:#c6002b;isolation:isolate;}</style></defs><title>Asset 3</title><g id="Layer_2" data-name="Layer 2"><g id="Layer_1-2" data-name="Layer 1"><circle class="cls-1" cx="75" cy="75" r="75"/></g><g id="Layer_2-2" data-name="Layer 2"><path class="cls-2" d="M123.57,46.86l-.48-.48a30.81,30.81,0,0,0-43.45,0l-4.73,4.73L97.83,74a14.06,14.06,0,0,0-6.31-17.81,1.63,1.63,0,0,1-.88-1.38,1.87,1.87,0,0,1,.55-1.58l.72-.56a2.76,2.76,0,0,1,2,.12c5.13,3.73,9.19,9.06,9.19,15.81C103.1,76.68,99,83.51,91.72,86a2.06,2.06,0,0,1-1.51-.43,2.3,2.3,0,0,1-.83-2.09v-.15a2,2,0,0,1,.34-.91,3.7,3.7,0,0,1,1.37-1.14A14.39,14.39,0,0,0,97.83,74L75,51.14h-.07l0,0-4.72-4.73a30.81,30.81,0,0,0-43.45,0l-.48.48a30.81,30.81,0,0,0,0,43.45l15.32,15.32h0v0l16.34,14.27c2.12,2.85,5.08,3.51,6,1.15L63.8,99.77A11.47,11.47,0,0,1,73.93,88.23,11.23,11.23,0,0,1,86.2,99.38v14c0,10.32.14,9.07,2.36,9.18a1.9,1.9,0,0,0,1.22-.64,35.77,35.77,0,0,0,2.85-2.76,7,7,0,0,1,.57-.52l15-13v0h0l15.32-15.32A30.81,30.81,0,0,0,123.57,46.86ZM46.3,93.55a2.06,2.06,0,0,1-1.51.43c-7.08-4.5-14.74-15.93-15.38-25.36-.67-10,5.31-17.51,10.45-21.24a2.73,2.73,0,0,1,2-.12l.72.56a1.87,1.87,0,0,1,.55,1.58,1.84,1.84,0,0,1-.88,1.38c-7.83,6-8.88,12.51-8.65,17.84C34,78,42.08,86.53,45.41,89.26a6.59,6.59,0,0,1,1.37,1.14,2,2,0,0,1,.34.91v.15A2.27,2.27,0,0,1,46.3,93.55Zm13.49-8a2.06,2.06,0,0,1-1.51.43C51,83.51,46.9,76.68,46.9,68.62c0-6.75,4.06-12.08,9.19-15.81a2.76,2.76,0,0,1,2-.12l.72.56a1.87,1.87,0,0,1,.55,1.58,1.63,1.63,0,0,1-.88,1.38,14.12,14.12,0,0,0,.42,25.05,3.7,3.7,0,0,1,1.37,1.14,2,2,0,0,1,.34.91v.15A2.3,2.3,0,0,1,59.79,85.55Zm15.12-6.11a9.54,9.54,0,1,1,9.55-9.54A9.54,9.54,0,0,1,74.91,79.44Zm45.68-10.82c-.64,9.43-8.3,20.86-15.38,25.36a2.06,2.06,0,0,1-1.51-.43,2.27,2.27,0,0,1-.83-2.09v-.15a2,2,0,0,1,.34-.91,6.59,6.59,0,0,1,1.37-1.14C107.92,86.53,116,78,116.41,68.62c.23-5.33-.82-11.83-8.65-17.84a1.84,1.84,0,0,1-.88-1.38,1.87,1.87,0,0,1,.55-1.58l.72-.56a2.73,2.73,0,0,1,2,.12C115.28,51.11,121.26,58.62,120.59,68.62Z"/></g></g></svg>